<svg xmlns="http://www.w3.org/2000/svg" width="36.756" height="54.07" viewBox="0 0 36.756 54.07">
  <g id="Group_7638" data-name="Group 7638" transform="translate(0.125 0.125)">
    <path id="Path_6840" data-name="Path 6840" d="M27.981,41.3a1.577,1.577,0,0,0,1.579-1.576V38.616a4.646,4.646,0,0,0-9.293,0V49.182a1.489,1.489,0,0,1-2.978,0V34.651a6,6,0,0,0,4.123-4.782,9.568,9.568,0,0,0,6.668-8.21c0-.006,0-.012,0-.018.027-.29.041-.583.041-.879V8.248h1.289a1.576,1.576,0,1,0,0-3.152H21.877a6.545,6.545,0,0,0-12.765,0H1.579a1.576,1.576,0,1,0,0,3.151h1.29V20.762a9.559,9.559,0,0,0,6.71,9.108,6,6,0,0,0,4.552,4.9V49.182a4.646,4.646,0,0,0,9.293,0V38.616a1.489,1.489,0,0,1,2.978,0v1.112A1.577,1.577,0,0,0,27.981,41.3ZM15.495,3.152A3.39,3.39,0,0,1,18.56,5.1H12.43A3.39,3.39,0,0,1,15.495,3.152ZM6.026,20.762V8.248H24.964v5.366H19.076a1.576,1.576,0,1,0,0,3.152h5.887v3.152H19.076a1.576,1.576,0,1,0,0,3.151h5.455a6.409,6.409,0,0,1-5.967,4.083H12.426A6.4,6.4,0,0,1,6.026,20.762Zm6.985,9.54h4.968a2.832,2.832,0,0,1-4.968,0Zm0,0" stroke="#fff" stroke-width="0.25"/>
    <ellipse id="Ellipse_228" data-name="Ellipse 228" cx="3.5" cy="4" rx="3.5" ry="4" transform="translate(28 44.444)" fill="#13d596"/>
    <path id="Path_6839" data-name="Path 6839" d="M261.217,401.782a12.117,12.117,0,0,0-1.984-1.733,1.58,1.58,0,0,0-1.76,0,12.122,12.122,0,0,0-1.983,1.733,7.035,7.035,0,0,0-2.12,4.671,4.794,4.794,0,0,0,4.983,5.138,5.157,5.157,0,0,0,3.239-1.076,4.939,4.939,0,0,0,1.744-4.063A7.035,7.035,0,0,0,261.217,401.782Zm-2.863,6.658a1.708,1.708,0,0,1-1.826-1.987,4.925,4.925,0,0,1,1.829-3.077,4.882,4.882,0,0,1,1.822,3.077A1.708,1.708,0,0,1,258.354,408.44Zm0,0" transform="translate(-226.706 -357.707)"/>
  </g>
</svg>
